<svg xmlns="http://www.w3.org/2000/svg" width="1740" height="710" viewBox="0 0 1740 710" role="img" aria-labelledby="title desc"><title id="title">After — accepted code boundaries</title><desc id="desc">Snapshot already contains these seams; the diagram does not claim a measured refactor.</desc><defs><marker id="arr" markerWidth="10" markerHeight="8" refX="9" refY="4" orient="auto"><path d="M0,0 L10,4 L0,8 z" fill="#64748b"/></marker></defs><rect width="100%" height="100%" fill="#fff"/><text x="48" y="52" font-family="Arial,sans-serif" font-size="28" font-weight="700" fill="#102a43">After — accepted code boundaries</text><text x="48" y="84" font-family="Arial,sans-serif" font-size="17" fill="#475569">Snapshot already contains these seams; the diagram does not claim a measured refactor.</text><rect x="72" y="155" width="375" height="165" rx="12" fill="#eff6ff" stroke="#475569" stroke-width="2"/><rect x="72" y="155" width="375" height="42" rx="12" fill="#dbeafe"/><path d="M72 197 H447" stroke="#475569"/><text x="259.5" y="183" text-anchor="middle" font-family="Arial,sans-serif" font-size="17" font-weight="700" fill="#102a43">VideoCaptureScreen</text><text x="90" y="225" font-family="Arial,sans-serif" font-size="15" fill="#334155">coordinates permission/review</text><text x="90" y="249" font-family="Arial,sans-serif" font-size="15" fill="#334155">does not own transfer protocol</text><rect x="475" y="155" width="375" height="165" rx="12" fill="#f0fdfa" stroke="#475569" stroke-width="2"/><rect x="475" y="155" width="375" height="42" rx="12" fill="#dbeafe"/><path d="M475 197 H850" stroke="#475569"/><text x="662.5" y="183" text-anchor="middle" font-family="Arial,sans-serif" font-size="17" font-weight="700" fill="#102a43">CameraPlatform</text><text x="493" y="225" font-family="Arial,sans-serif" font-size="15" fill="#334155">browser / Expo adapters</text><text x="493" y="249" font-family="Arial,sans-serif" font-size="15" fill="#334155">common capture contract</text><rect x="878" y="155" width="375" height="165" rx="12" fill="#fff7ed" stroke="#475569" stroke-width="2"/><rect x="878" y="155" width="375" height="42" rx="12" fill="#dbeafe"/><path d="M878 197 H1253" stroke="#475569"/><text x="1065.5" y="183" text-anchor="middle" font-family="Arial,sans-serif" font-size="17" font-weight="700" fill="#102a43">RealAccount runtime</text><text x="896" y="225" font-family="Arial,sans-serif" font-size="15" fill="#334155">routes direct / staged</text><text x="896" y="249" font-family="Arial,sans-serif" font-size="15" fill="#334155">authenticated app boundary</text><rect x="1281" y="155" width="375" height="165" rx="12" fill="#fff7ed" stroke="#475569" stroke-width="2"/><rect x="1281" y="155" width="375" height="42" rx="12" fill="#dbeafe"/><path d="M1281 197 H1656" stroke="#475569"/><text x="1468.5" y="183" text-anchor="middle" font-family="Arial,sans-serif" font-size="17" font-weight="700" fill="#102a43">Upload-intent service</text><text x="1299" y="225" font-family="Arial,sans-serif" font-size="15" fill="#334155">signed capability + version</text><text x="1299" y="249" font-family="Arial,sans-serif" font-size="15" fill="#334155">source and metadata checks</text><rect x="72" y="385" width="375" height="165" rx="12" fill="#fefce8" stroke="#475569" stroke-width="2"/><rect x="72" y="385" width="375" height="42" rx="12" fill="#dbeafe"/><path d="M72 427 H447" stroke="#475569"/><text x="259.5" y="413" text-anchor="middle" font-family="Arial,sans-serif" font-size="17" font-weight="700" fill="#102a43">Contribution service</text><text x="90" y="455" font-family="Arial,sans-serif" font-size="15" fill="#334155">quota + job transaction</text><text x="90" y="479" font-family="Arial,sans-serif" font-size="15" fill="#334155">idempotency + correction</text><rect x="475" y="385" width="375" height="165" rx="12" fill="#f0fdfa" stroke="#475569" stroke-width="2"/><rect x="475" y="385" width="375" height="42" rx="12" fill="#dbeafe"/><path d="M475 427 H850" stroke="#475569"/><text x="662.5" y="413" text-anchor="middle" font-family="Arial,sans-serif" font-size="17" font-weight="700" fill="#102a43">MediaStore</text><text x="493" y="455" font-family="Arial,sans-serif" font-size="15" fill="#334155">private storage interface</text><text x="493" y="479" font-family="Arial,sans-serif" font-size="15" fill="#334155">configured implementation</text><rect x="878" y="385" width="375" height="165" rx="12" fill="#f5f3ff" stroke="#475569" stroke-width="2"/><rect x="878" y="385" width="375" height="42" rx="12" fill="#dbeafe"/><path d="M878 427 H1253" stroke="#475569"/><text x="1065.5" y="413" text-anchor="middle" font-family="Arial,sans-serif" font-size="17" font-weight="700" fill="#102a43">FFmpeg</text><text x="896" y="455" font-family="Arial,sans-serif" font-size="15" fill="#334155">post-upload transform</text><text x="896" y="479" font-family="Arial,sans-serif" font-size="15" fill="#334155">selected mode + media kind</text><g aria-label="Visible class associations"><path d="M 447 270 H 472" fill="none" stroke="#334155" stroke-width="2.5" stroke-linecap="round" stroke-linejoin="round" marker-end="url(#arr)"/><path d="M 259.5 155 V 132 H 1065.5 V 148" fill="none" stroke="#334155" stroke-width="2.5" stroke-linecap="round" stroke-linejoin="round" marker-end="url(#arr)"/><path d="M 1253 270 H 1278" fill="none" stroke="#334155" stroke-width="2.5" stroke-linecap="round" stroke-linejoin="round" marker-end="url(#arr)"/><path d="M 1065.5 320 V 338 H 215.5 V 378" fill="none" stroke="#334155" stroke-width="2.5" stroke-linecap="round" stroke-linejoin="round" marker-end="url(#arr)"/><path d="M 1468.5 320 V 367 H 303.5 V 378" fill="none" stroke="#334155" stroke-width="2.5" stroke-linecap="round" stroke-linejoin="round" marker-end="url(#arr)"/><path d="M 447 500 H 472" fill="none" stroke="#334155" stroke-width="2.5" stroke-linecap="round" stroke-linejoin="round" marker-end="url(#arr)"/><path d="M 259.5 550 V 578 H 1065.5 V 557" fill="none" stroke="#334155" stroke-width="2.5" stroke-linecap="round" stroke-linejoin="round" marker-end="url(#arr)"/></g><text x="72" y="666" font-family="Arial,sans-serif" font-size="14" fill="#475569">Solid arrows show a responsibility/use relationship. Analysis names are domain responsibilities; design names are present at the pinned code cut.</text></svg>
