<svg xmlns="http://www.w3.org/2000/svg" width="1740" height="710" viewBox="0 0 1740 710" role="img" aria-labelledby="title desc"><title id="title">Before — variation pressure (conceptual)</title><desc id="desc">Problem model only; it is not a historical class diagram from this repository.</desc><defs><marker id="arr" markerWidth="10" markerHeight="8" refX="9" refY="4" orient="auto"><path d="M0,0 L10,4 L0,8 z" fill="#64748b"/></marker></defs><rect width="100%" height="100%" fill="#fff"/><text x="48" y="52" font-family="Arial,sans-serif" font-size="28" font-weight="700" fill="#102a43">Before — variation pressure (conceptual)</text><text x="48" y="84" font-family="Arial,sans-serif" font-size="17" fill="#475569">Problem model only; it is not a historical class diagram from this repository.</text><path d="M439 237.5 L483 237.5" fill="none" stroke="#64748b" stroke-width="2" marker-end="url(#arr)"/><path d="M842 237.5 L886 237.5" fill="none" stroke="#64748b" stroke-width="2" marker-end="url(#arr)"/><path d="M1245 237.5 L1289 237.5" fill="none" stroke="#64748b" stroke-width="2" marker-end="url(#arr)"/><path d="M1468.5 312 L1468.5 345 L259.5 360 L259.5 393" fill="none" stroke="#64748b" stroke-width="2" marker-end="url(#arr)"/><path d="M1468.5 312 L1468.5 345 L662.5 360 L662.5 393" fill="none" stroke="#64748b" stroke-width="2" marker-end="url(#arr)"/><rect x="72" y="155" width="375" height="165" rx="12" fill="#f8fafc" stroke="#475569" stroke-width="2"/><rect x="72" y="155" width="375" height="42" rx="12" fill="#dbeafe"/><path d="M72 197 H447" stroke="#475569"/><text x="259.5" y="183" text-anchor="middle" font-family="Arial,sans-serif" font-size="17" font-weight="700" fill="#102a43">Member</text><text x="90" y="225" font-family="Arial,sans-serif" font-size="15" fill="#334155">capture request + choices</text><rect x="475" y="155" width="375" height="165" rx="12" fill="#fee2e2" stroke="#475569" stroke-width="2"/><rect x="475" y="155" width="375" height="42" rx="12" fill="#dbeafe"/><path d="M475 197 H850" stroke="#475569"/><text x="662.5" y="183" text-anchor="middle" font-family="Arial,sans-serif" font-size="17" font-weight="700" fill="#102a43">CaptureController</text><text x="493" y="225" font-family="Arial,sans-serif" font-size="15" fill="#334155">browser/native API details</text><text x="493" y="249" font-family="Arial,sans-serif" font-size="15" fill="#334155">permission + recording</text><rect x="878" y="155" width="375" height="165" rx="12" fill="#fee2e2" stroke="#475569" stroke-width="2"/><rect x="878" y="155" width="375" height="42" rx="12" fill="#dbeafe"/><path d="M878 197 H1253" stroke="#475569"/><text x="1065.5" y="183" text-anchor="middle" font-family="Arial,sans-serif" font-size="17" font-weight="700" fill="#102a43">CaptureController</text><text x="896" y="225" font-family="Arial,sans-serif" font-size="15" fill="#334155">trim + preview + local cleanup</text><text x="896" y="249" font-family="Arial,sans-serif" font-size="15" fill="#334155">upload protocol details</text><rect x="1281" y="155" width="375" height="165" rx="12" fill="#fee2e2" stroke="#475569" stroke-width="2"/><rect x="1281" y="155" width="375" height="42" rx="12" fill="#dbeafe"/><path d="M1281 197 H1656" stroke="#475569"/><text x="1468.5" y="183" text-anchor="middle" font-family="Arial,sans-serif" font-size="17" font-weight="700" fill="#102a43">CaptureController</text><text x="1299" y="225" font-family="Arial,sans-serif" font-size="15" fill="#334155">quota + correction logic</text><text x="1299" y="249" font-family="Arial,sans-serif" font-size="15" fill="#334155">FFmpeg mode and job states</text><rect x="72" y="385" width="375" height="165" rx="12" fill="#fff7ed" stroke="#475569" stroke-width="2"/><rect x="72" y="385" width="375" height="42" rx="12" fill="#dbeafe"/><path d="M72 427 H447" stroke="#475569"/><text x="259.5" y="413" text-anchor="middle" font-family="Arial,sans-serif" font-size="17" font-weight="700" fill="#102a43">Device APIs</text><text x="90" y="455" font-family="Arial,sans-serif" font-size="15" fill="#334155">MediaRecorder / Expo camera</text><rect x="475" y="385" width="375" height="165" rx="12" fill="#fff7ed" stroke="#475569" stroke-width="2"/><rect x="475" y="385" width="375" height="42" rx="12" fill="#dbeafe"/><path d="M475 427 H850" stroke="#475569"/><text x="662.5" y="413" text-anchor="middle" font-family="Arial,sans-serif" font-size="17" font-weight="700" fill="#102a43">Storage + server</text><text x="493" y="455" font-family="Arial,sans-serif" font-size="15" fill="#334155">direct PUT / staged intake</text><text x="493" y="479" font-family="Arial,sans-serif" font-size="15" fill="#334155">database + processing</text><text x="72" y="666" font-family="Arial,sans-serif" font-size="14" fill="#475569">Solid arrows show a responsibility/use relationship. Analysis names are domain responsibilities; design names are present at the pinned code cut.</text></svg>
